# xmcd
#
# Track frame offsets: 
#        150
#        9912
#        21894
#        37024
#        56972
#        75204
#        98583
#        109391
#        132770
#        148911
#        170176
#        187034
#
# Disc length: 2725 seconds
#
# Revision: 0
# Processed by: cddbd v1.5.2PL0 Copyright (c) Steve Scherf et al.
# Submitted via: ExactAudioCopy v1.3
#
DISCID=a20aa30c
DTITLE=Sierra Hull - Weighted Mind
DYEAR=2016
DGENRE=Bluegrass
TTITLE0=Stranded
TTITLE1=Compass
TTITLE2=Choices and Changes
TTITLE3=Wings of the Dawn
TTITLE4=Birthday
TTITLE5=Weighted Mind
TTITLE6=Fallen Man
TTITLE7=The In-Between
TTITLE8=Lullaby
TTITLE9=Queen of Hearts - Royal Tea
TTITLE10=I'll Be Fine
TTITLE11=Black River
EXTD=
EXTT0=
EXTT1=
EXTT2=
EXTT3=
EXTT4=
EXTT5=
EXTT6=
EXTT7=
EXTT8=
EXTT9=
EXTT10=
EXTT11=
PLAYORDER=
